<svg id="SvgjsSvg1166" width="360" height="360" xmlns="http://www.w3.org/2000/svg" version="1.1" xmlns:xlink="http://www.w3.org/1999/xlink" xmlns:svgjs="http://svgjs.com/svgjs"><defs id="SvgjsDefs1167"></defs><g id="SvgjsG1168"><svg xmlns="http://www.w3.org/2000/svg" viewBox="0 0 506.21 506.72" width="360" height="360"><g data-name="Layer 2" fill="#000000" class="color000 svgShape"><g data-name="Layer 1" fill="#000000" class="color000 svgShape"><path fill="none" stroke="#008ef8" stroke-linecap="round" stroke-linejoin="round" d="M347.87 383.88h66.69v46.96h-66.69z" transform="rotate(149.83 381.216 407.343)" class="colorStroke008ef8 svgStroke"></path><circle cx="405.4" cy="429.06" r="29.82" fill="#c1e3f7" class="colorc1e3f7 svgShape"></circle><path fill="#fff8e9" d="M229.34 101.73 506.21 0l-10.84 41.43a110.93 110.93 0 0 0-.06 55.89l2.58 10a111 111 0 0 1-2.37 63.54 111 111 0 0 0-.83 68.91l11.52 36.73-276.87-165.38Z" class="colorfff8e9 svgShape"></path><path fill="#008ef8" d="M259.05 499.8a253.7 253.7 0 0 1-89.9 4.24q-4.41-.59-8.81-1.32t-8.89-1.66q-2.92-.58-5.84-1.26l.18-2.65.54-7.66.31-4.44.74-10.7.75-10.71.5-7.19.34-4.9.78-11.23.82-11.72.82-11.78.84-12.1.78-11.24.82-11.72.73-10.52.84-12.1.79-11.25.81-11.72.85-12.13.75-10.79.73-10.58.6-8.61.76-10.86.69-9.91.7-10.12.84-12 .84-12.1.78-11.24.81-11.72.25-3.57h73.44l17 243.93 2.53 36.32Z" class="color008ef8 svgShape"></path><path fill="#489ee0" d="M259.05 499.8a253.7 253.7 0 0 1-89.9 4.24q-4.41-.59-8.81-1.32t-8.89-1.66q-2.92-.58-5.84-1.26l.18-2.65.54-7.66.31-4.44.74-10.7.75-10.71.5-7.19q2.69.58 5.38 1.1c2.73.53 5.47 1 8.21 1.45s5.61.86 8.42 1.2a253.78 253.78 0 0 0 85.36-3.75l2.53 36.32Z" class="color489ee0 svgShape"></path><path fill="#2428bb" d="M168.81 212.52a5.8 5.8 0 0 1-1.37 2.13 5.66 5.66 0 0 1-2.08 1.44 6.39 6.39 0 0 1 3.45-3.57ZM178.87 213a107.64 107.64 0 0 1-14.33 14.83 93.21 93.21 0 0 1 6.8-7.76 95.06 95.06 0 0 1 7.53-7.07ZM178.87 223.42a118.84 118.84 0 0 1-15.11 15.64 103.44 103.44 0 0 1 7.19-8.17 105.6 105.6 0 0 1 7.92-7.47ZM178.87 234.64c-2.38 3-5 5.84-7.62 8.61s-5.39 5.43-8.33 7.91c2.37-3 5-5.84 7.61-8.61s5.4-5.43 8.34-7.91ZM178.87 282.44c-1.48 1.83-3 3.58-4.61 5.32s-3.18 3.45-4.8 5.14-3.28 3.36-5 5l-2.46 2.41c-.88.79-1.73 1.6-2.62 2.36.73-.92 1.51-1.8 2.26-2.7l2.35-2.62c1.56-1.75 3.18-3.45 4.8-5.14s3.27-3.36 5-5 3.3-3.21 5.08-4.77ZM178.87 292.26c-1.54 1.89-3.16 3.71-4.79 5.51s-3.31 3.57-5 5.33-3.39 3.48-5.15 5.17l-2.63 2.53c-.91.81-1.79 1.65-2.71 2.45.76-.95 1.57-1.86 2.35-2.79l2.44-2.72c1.62-1.82 3.3-3.58 5-5.33s3.4-3.48 5.15-5.17 3.47-3.37 5.34-4.98ZM178.87 302.27c-1.61 2-3.29 3.84-5 5.71s-3.43 3.7-5.17 5.52-3.52 3.61-5.34 5.36l-2.73 2.63c-.93.85-1.85 1.72-2.8 2.55.79-1 1.63-1.93 2.45-2.89l2.53-2.82c1.68-1.88 3.42-3.7 5.17-5.52s3.52-3.61 5.34-5.36 3.68-3.51 5.55-5.18ZM178.87 313.53c-1.68 2-3.43 4-5.19 5.93s-3.57 3.84-5.39 5.74-3.66 3.75-5.55 5.58l-2.83 2.73c-1 .89-1.92 1.8-2.91 2.66.83-1 1.7-2 2.55-3l2.64-2.93c1.76-1.95 3.57-3.84 5.38-5.74s3.67-3.75 5.55-5.58 3.78-3.65 5.75-5.39ZM178.87 324.41c-1.74 2.1-3.56 4.12-5.4 6.14s-3.7 4-5.58 5.95-3.8 3.89-5.76 5.79l-2.93 2.84c-1 .92-2 1.86-3 2.76.86-1.06 1.77-2.07 2.66-3.11l2.73-3c1.83-2 3.71-4 5.59-5.95s3.8-3.89 5.75-5.79 3.9-3.82 5.94-5.63ZM178.87 334.84c-1.81 2.17-3.7 4.26-5.59 6.34s-3.84 4.12-5.79 6.16-3.93 4-6 6l-3 2.94c-1 1-2 1.94-3.11 2.87.89-1.09 1.84-2.14 2.75-3.21l2.87-3.14c1.89-2.09 3.84-4.12 5.78-6.16s3.93-4 5.95-6 4.03-3.92 6.14-5.8ZM178.87 346.07c-1.88 2.24-3.84 4.41-5.8 6.56s-4 4.27-6 6.37-4.07 4.18-6.16 6.21l-3.14 3.05c-1.07 1-2.12 2-3.21 3 .93-1.13 1.91-2.21 2.86-3.32l2.94-3.24c2-2.16 4-4.27 6-6.37s4.07-4.18 6.16-6.21 4.17-4.12 6.35-6.05ZM178.87 355.83c-1.94 2.3-4 4.53-6 6.75s-4.1 4.39-6.17 6.56-4.19 4.31-6.35 6.4l-3.23 3.15c-1.1 1-2.18 2.07-3.3 3.07 1-1.16 2-2.27 2.95-3.41l3-3.34c2-2.22 4.1-4.39 6.18-6.56s4.19-4.31 6.34-6.4 4.34-4.2 6.58-6.22ZM178.87 366.7c-2 2.37-4.09 4.67-6.19 7s-4.24 4.54-6.38 6.78-4.33 4.44-6.55 6.61l-3.33 3.25c-1.14 1.06-2.25 2.14-3.41 3.18 1-1.19 2-2.34 3.05-3.52l3.14-3.44c2.09-2.3 4.23-4.54 6.38-6.78s4.33-4.44 6.55-6.61 4.43-4.38 6.74-6.47ZM178.87 377.14c-2.07 2.44-4.22 4.81-6.39 7.16s-4.36 4.67-6.57 7-4.46 4.58-6.75 6.81l-3.43 3.35c-1.17 1.09-2.31 2.21-3.5 3.28 1-1.23 2.1-2.41 3.15-3.62l3.23-3.54c2.16-2.36 4.37-4.67 6.58-7s4.46-4.58 6.74-6.81 4.57-4.47 6.94-6.63ZM178.87 388.36c-2.14 2.51-4.36 4.95-6.6 7.38s-4.5 4.82-6.78 7.2-4.6 4.72-7 7l-3.49 3.49c-1.21 1.13-2.39 2.28-3.61 3.39 1.06-1.26 2.17-2.48 3.26-3.73l3.33-3.65c2.23-2.44 4.51-4.82 6.79-7.2s4.6-4.72 6.95-7 4.71-4.65 7.15-6.88ZM178.87 399.3c-2.21 2.58-4.5 5.09-6.8 7.59s-4.64 5-7 7.41-4.74 4.86-7.16 7.24l-3.64 3.57c-1.24 1.16-2.45 2.35-3.71 3.49 1.1-1.3 2.24-2.55 3.36-3.83l3.44-3.76c2.29-2.51 4.64-5 7-7.41s4.73-4.86 7.16-7.24 4.84-4.76 7.35-7.06ZM178.87 451.68c-2.54 2.92-5.16 5.77-7.79 8.61s-5.31 5.61-8 8.42-5.4 5.54-8.14 8.26l-4.13 4.08c-1.4 1.33-2.78 2.69-4.2 4 1.26-1.47 2.57-2.89 3.85-4.34l3.93-4.27c2.63-2.84 5.32-5.61 8-8.42s5.4-5.54 8.14-8.26 5.47-5.44 8.34-8.08ZM145.79 497.15c1.3-1.5 2.64-3 4-4.45l4-4.38c2.7-2.91 5.46-5.76 8.19-8.64s5.54-5.68 8.35-8.48l4.24-4.19c1.43-1.37 2.85-2.76 4.31-4.11-1.3 1.51-2.64 3-4 4.45l-4 4.38c-2.69 2.91-5.45 5.76-8.18 8.64s-5.54 5.69-8.35 8.49-5.66 5.58-8.56 8.29ZM151.45 501.06c.63-.75 1.28-1.49 1.93-2.22s1.28-1.48 2-2.2l4-4.34a.41.41 0 0 1 .29-.13l-.31.13c3.14-3.38 6.36-6.7 9.6-10 1.62-1.65 3.28-3.26 4.93-4.88s3.33-3.2 5-4.77c-1.51 1.75-3 3.49-4.6 5.19s-3.11 3.42-4.7 5.09c-3.17 3.36-6.37 6.69-9.64 9.95a.46.46 0 0 1-.3.12l.31-.13-4.2 4.12c-.69.69-1.41 1.35-2.12 2s-1.47 1.41-2.19 2.07ZM160.34 502.72c1.39-1.74 2.87-3.41 4.36-5.06s3-3.27 4.54-4.88 3.11-3.18 4.72-4.71l2.42-2.3c.83-.74 1.63-1.51 2.49-2.23-.69.88-1.43 1.71-2.14 2.57l-2.22 2.49c-1.48 1.66-3 3.27-4.55 4.88s-3.1 3.18-4.71 4.71-3.25 3.08-4.91 4.53ZM169.15 504a43 43 0 0 1 4.5-5.38 42.38 42.38 0 0 1 5.22-4.69 49.36 49.36 0 0 1-9.72 10.07ZM178.87 410.17c-2.28 2.66-4.64 5.24-7 7.8s-4.78 5.1-7.19 7.62-4.87 5-7.37 7.46l-3.74 3.67c-1.27 1.2-2.52 2.42-3.81 3.6 1.13-1.34 2.31-2.63 3.46-3.94l3.54-3.86c2.36-2.58 4.78-5.1 7.2-7.62s4.87-5 7.36-7.46 4.97-4.9 7.55-7.27ZM178.87 420.6c-2.35 2.72-4.77 5.37-7.2 8s-4.91 5.23-7.39 7.82-5 5.14-7.56 7.66l-3.84 3.77c-1.3 1.23-2.59 2.49-3.91 3.7 1.16-1.37 2.37-2.69 3.56-4l3.64-4c2.42-2.65 4.9-5.24 7.39-7.82s5-5.14 7.56-7.66 5.11-5.07 7.75-7.47ZM148.13 463.64c2.41-2.8 4.9-5.52 7.41-8.22s5-5.38 7.6-8 5.14-5.28 7.77-7.87l3.94-3.88c1.34-1.27 2.66-2.56 4-3.81-1.2 1.4-2.45 2.76-3.67 4.15l-3.72 3.99c-2.5 2.72-5.05 5.38-7.6 8s-5.15 5.28-7.77 7.87-5.25 5.26-7.96 7.77ZM147.38 474.35c2.47-2.86 5-5.64 7.59-8.41s5.2-5.48 7.79-8.22 5.28-5.4 8-8.06l4-4c1.38-1.3 2.72-2.62 4.12-3.9-1.23 1.44-2.51 2.83-3.76 4.24l-3.84 4.17c-2.57 2.76-5.2 5.47-7.79 8.21s-5.27 5.41-8 8.06-5.34 5.34-8.11 7.91ZM178.87 275.22c-1.44 1.72-3 3.35-4.47 5s-3.08 3.22-4.65 4.79-3.17 3.13-4.82 4.63l-2.46 2.26c-.85.72-1.67 1.48-2.54 2.18.71-.87 1.46-1.68 2.19-2.53l2.27-2.45c1.52-1.64 3.08-3.22 4.66-4.79s3.17-3.13 4.81-4.63 3.28-3.04 5.01-4.46ZM178.87 264.88c-1.37 1.67-2.82 3.27-4.28 4.85s-3 3.13-4.46 4.66-3 3-4.62 4.5l-2.38 2.19c-.81.71-1.6 1.44-2.44 2.12.67-.84 1.4-1.64 2.1-2.46l2.17-2.39c1.45-1.59 3-3.13 4.46-4.66s3.05-3 4.63-4.5 3.16-2.93 4.82-4.31ZM178.87 255.7c-2.64 3.21-5.49 6.2-8.39 9.15s-5.91 5.79-9.1 8.44c2.63-3.21 5.48-6.21 8.39-9.15s5.9-5.79 9.1-8.44ZM178.87 246.21c-2.52 3.1-5.26 6-8 8.83s-5.67 5.58-8.75 8.13c2.51-3.1 5.25-6 8-8.83s5.67-5.58 8.75-8.13Z" class="color2428bb svgShape"></path><path fill="#c1e3f7" d="M165.57 162.6h73.48v49.92h-73.48z" class="colorc1e3f7 svgShape"></path><path fill="#008ef8" d="M174.86 122.16h54.9v40.44h-54.9z" class="color008ef8 svgShape"></path><path fill="#c1e3f7" d="M184.67 81.3h35.28v40.86h-35.28z" class="colorc1e3f7 svgShape"></path><path fill="#008ef8" d="M225.75 89.31h-46.89a43.66 43.66 0 0 1 6-22.07l17.46-29.78 17.45 29.78a43.66 43.66 0 0 1 6 22.07Z" class="color008ef8 svgShape"></path><path fill="#c1e3f7" d="M239.9 224.79a15.44 15.44 0 0 0-28.1 10.11l3.44 38.41 27.87-2.5ZM245.59 306.53a15.41 15.41 0 0 0-12.28-4.45 15.44 15.44 0 0 0-14 16.76l3.44 38.4L249 354.9ZM251.58 392.5a15.45 15.45 0 0 0-6.39-.78 15.44 15.44 0 0 0-14 16.76l3.44 38.4 20.6-1.84Z" class="colorc1e3f7 svgShape"></path><path fill="#0234c1" d="M219.95 101.73h9.39v9.39h-9.39z" class="color0234c1 svgShape"></path><path fill="#a0c2ea" d="M33.93 149.88a190.83 190.83 0 0 0 29.41-22.75c2.26-2.12 4.44-4.33 6.61-6.54 1-1.14 2.16-2.24 3.16-3.4s2-2.37 2.93-3.59c3.77-4.91 7.34-10 10.92-15.08L97.7 83.28c1.8-2.53 3.59-5.08 5.46-7.57a47.66 47.66 0 0 1 6.2-7 32.73 32.73 0 0 1 16.9-7.71 48.5 48.5 0 0 1 18.55 1 49.31 49.31 0 0 0-18.47-.58 32.15 32.15 0 0 0-16.47 7.77 52.3 52.3 0 0 0-6 7c-1.84 2.49-3.61 5-5.4 7.59l-10.7 15.31c-3.6 5.07-7.19 10.14-11 15.07-1 1.22-1.93 2.44-3 3.62s-2.14 2.27-3.21 3.41c-2.18 2.22-4.4 4.41-6.71 6.5a178 178 0 0 1-14.36 11.91 174.28 174.28 0 0 1-15.56 10.28ZM103.77 111a54 54 0 0 1 4.46-12.14 44.24 44.24 0 0 1 7.59-10.53 38.77 38.77 0 0 1 10.51-7.67 112.88 112.88 0 0 1 12-4.86 114.62 114.62 0 0 0 11.91-4.91 108.45 108.45 0 0 0 11.21-6.33A110.27 110.27 0 0 0 171.89 57c3.36-2.7 6.54-5.61 9.64-8.61A112.77 112.77 0 0 1 161.9 65.2a103.1 103.1 0 0 1-23.19 11.54 114.07 114.07 0 0 0-12 4.73 40 40 0 0 0-10.38 7.4c-6.11 5.99-10.17 13.87-12.56 22.13ZM30.33 301.08a139.33 139.33 0 0 0 27.78-12.38c4.38-2.56 8.59-5.39 12.71-8.37s8.22-6 12.06-9.26a64.52 64.52 0 0 0 5.46-5.25 31.51 31.51 0 0 0 4.47-6 15 15 0 0 0 2-7 13.66 13.66 0 0 0-2.1-7c-2.58-4.19-6.86-7.56-11.75-8.27a11.89 11.89 0 0 0-7.1 1.26 15 15 0 0 0-5.44 4.88 14.26 14.26 0 0 0-2.42 6.79 14.51 14.51 0 0 0 .21 3.66 17.61 17.61 0 0 0 1.13 3.52 18 18 0 0 0 10.65 9.74c4.76 1.52 10 1 14.81-.22a70.51 70.51 0 0 0 14.11-5.45 108.74 108.74 0 0 0 13.01-7.73 77.92 77.92 0 0 0 11.54-9.85A88.45 88.45 0 0 0 148.41 219a88.76 88.76 0 0 1-16.6 25.46 78.11 78.11 0 0 1-11.53 10 110.65 110.65 0 0 1-13.07 7.93A68.87 68.87 0 0 1 93 268a38.15 38.15 0 0 1-7.61 1.17 22.28 22.28 0 0 1-7.69-.92 19 19 0 0 1-11.24-10.22 18.48 18.48 0 0 1-1.21-3.73 15.58 15.58 0 0 1-.25-3.9 15.16 15.16 0 0 1 2.67-7.32 16 16 0 0 1 5.81-5.19 12.83 12.83 0 0 1 7.68-1.33 16.19 16.19 0 0 1 7.16 3 20.19 20.19 0 0 1 5.24 5.73 14.57 14.57 0 0 1 2.21 7.45 15.92 15.92 0 0 1-2.17 7.45c-2.56 4.53-6.33 8.12-10.19 11.44s-8 6.27-12.2 9.19a149.13 149.13 0 0 1-12.83 8.28 139 139 0 0 1-28.05 11.98Z" class="colora0c2ea svgShape"></path><path fill="#f46534" d="M273.68 24.92c.55 2.62.91 5.25 1.2 7.88s.49 5.28.65 7.92.22 5.29.21 7.94a79.17 79.17 0 0 1-.36 8c-.55-2.63-.91-5.26-1.2-7.89s-.49-5.28-.65-7.92-.22-5.29-.2-7.94a78.83 78.83 0 0 1 .35-7.99Z" class="colorf46534 svgShape"></path><path fill="#f46534" d="M290.39 39.92a78.74 78.74 0 0 1-7.89 1.21c-2.63.3-5.27.48-7.92.64s-5.29.23-7.94.21a79 79 0 0 1-8-.35 78.74 78.74 0 0 1 7.89-1.21c2.63-.3 5.27-.48 7.92-.64s5.29-.22 7.94-.21 5.33.08 8 .35ZM294.61 44.36a36.16 36.16 0 0 1 1.06 5.29c.24 1.78.42 3.55.51 5.33s.12 3.56.07 5.35a36.35 36.35 0 0 1-.49 5.38 36.2 36.2 0 0 1-1.07-5.29c-.24-1.78-.41-3.55-.51-5.33s-.11-3.56-.06-5.35a36.35 36.35 0 0 1 .49-5.38Z" class="colorf46534 svgShape"></path><path fill="#f46534" d="M305.86 54.46a36.29 36.29 0 0 1-5.3 1.06c-1.77.25-3.54.42-5.32.51s-3.57.12-5.35.07a36.61 36.61 0 0 1-5.39-.49 38 38 0 0 1 5.3-1.07c1.77-.24 3.55-.41 5.33-.5s3.56-.12 5.35-.07a36.35 36.35 0 0 1 5.38.49ZM33.26 309.23a78.74 78.74 0 0 1 1.21 7.89c.3 2.63.48 5.28.65 7.92s.22 5.29.2 7.94a76 76 0 0 1-.35 8 75.92 75.92 0 0 1-1.2-7.89c-.3-2.63-.49-5.27-.65-7.91s-.22-5.29-.2-7.95a78.93 78.93 0 0 1 .34-8Z" class="colorf46534 svgShape"></path><path fill="#f46534" d="M50 324.24c-2.62.55-5.25.91-7.89 1.2s-5.28.49-7.92.65-5.29.22-7.94.21-5.31-.08-8-.35a78.74 78.74 0 0 1 7.89-1.21c2.63-.3 5.27-.49 7.91-.65s5.29-.22 7.95-.2a79 79 0 0 1 8 .35ZM54.2 328.67a38 38 0 0 1 1.06 5.3c.24 1.77.41 3.55.51 5.33s.12 3.56.07 5.35a36.35 36.35 0 0 1-.49 5.38 35.3 35.3 0 0 1-1.07-5.3c-.24-1.77-.42-3.55-.51-5.33s-.11-3.56-.06-5.35a36.47 36.47 0 0 1 .49-5.38Z" class="colorf46534 svgShape"></path><path fill="#f46534" d="M65.45 338.78a38 38 0 0 1-5.3 1.06c-1.77.24-3.55.41-5.33.51s-3.56.12-5.35.07a36.47 36.47 0 0 1-5.38-.49 35.3 35.3 0 0 1 5.3-1.07c1.77-.24 3.55-.42 5.33-.51s3.56-.11 5.35-.06a36.35 36.35 0 0 1 5.38.49ZM467.14 289.81c.55 2.62.91 5.26 1.2 7.89s.49 5.28.65 7.92.22 5.29.21 7.94a78.84 78.84 0 0 1-.36 8c-.55-2.62-.91-5.25-1.2-7.89s-.49-5.27-.65-7.91-.22-5.29-.2-8a79 79 0 0 1 .35-7.95Z" class="colorf46534 svgShape"></path><path fill="#f46534" d="M483.85 304.82c-2.62.55-5.25.91-7.89 1.2s-5.27.49-7.92.65-5.29.23-7.94.21a79 79 0 0 1-8-.35 78.74 78.74 0 0 1 7.89-1.21c2.63-.3 5.27-.49 7.92-.65s5.29-.22 7.94-.2a79 79 0 0 1 8 .35ZM488.07 309.25a36.56 36.56 0 0 1 1.06 5.3c.24 1.77.42 3.55.51 5.33s.12 3.56.07 5.35a36.35 36.35 0 0 1-.49 5.38 36.6 36.6 0 0 1-1.07-5.3c-.24-1.77-.41-3.54-.51-5.32s-.11-3.57-.06-5.36a36.6 36.6 0 0 1 .49-5.38Z" class="colorf46534 svgShape"></path><path fill="#f46534" d="M499.32 319.36a36.29 36.29 0 0 1-5.3 1.06c-1.77.24-3.54.42-5.32.51s-3.57.12-5.35.07a36.61 36.61 0 0 1-5.39-.49 36.6 36.6 0 0 1 5.3-1.07c1.77-.24 3.55-.42 5.33-.51s3.56-.11 5.35-.06a36.35 36.35 0 0 1 5.38.49Z" class="colorf46534 svgShape"></path><path fill="#ffedc5" d="m329.28 440.33 19.72 33.9a31.14 31.14 0 0 1-3.56-1.88l-16.29-28a28.26 28.26 0 0 1 .13-4.02ZM330 451.22l9.9 17a33.38 33.38 0 0 1-9.9-17ZM330.56 433.86l24.69 42.48c-1-.24-2-.52-3-.85l-22.5-38.69a22.27 22.27 0 0 1 .81-2.94ZM332.67 428.54l28.24 48.58a19.48 19.48 0 0 1-2.61-.24l-26.72-46a20.6 20.6 0 0 1 1.09-2.34ZM335.3 424.12 366.05 477a23.42 23.42 0 0 1-2.39.14l-29.66-51c0-.09.11-.18.17-.29.35-.61.74-1.18 1.13-1.73ZM338.28 420.49l32.4 55.73c-.74.18-1.46.34-2.21.45l-31.68-54.5a19.86 19.86 0 0 1 1.49-1.68ZM341.54 417.44l33.39 57.45c-.68.27-1.35.51-2 .72l-33-56.73a17 17 0 0 1 1.61-1.44ZM345.22 414.82 379 473a17.14 17.14 0 0 1-1.91 1l-33.66-58c.57-.42 1.18-.82 1.79-1.18ZM349.24 412.74l33.6 57.8c-.56.42-1.14.83-1.76 1.21l-33.77-58.09a17 17 0 0 1 1.93-.92ZM353.61 411.16l32.76 56.36c-.51.52-1.06 1-1.61 1.48l-33.25-57.19c.69-.23 1.39-.46 2.1-.65ZM358.25 410.19 389.5 464a19.15 19.15 0 0 1-1.44 1.77L356 410.58a20.54 20.54 0 0 1 2.25-.39ZM363.3 409.89l29 49.81c-.28.54-.57 1.05-.87 1.55-.12.19-.25.39-.37.56l-30.16-51.88c.77-.05 1.57-.07 2.4-.04ZM368.69 410.41l25.8 44.37a21.92 21.92 0 0 1-1 2.51L366 410a19.14 19.14 0 0 1 2.69.41ZM374.68 412.06l21.32 36.7a24.05 24.05 0 0 1-.66 3.12l-23.73-40.83a27.92 27.92 0 0 1 3.07 1.01ZM382.17 416l14.08 24.22a28.06 28.06 0 0 1 .15 4.5l-18.06-31.06c.71.38 1.45.79 2.14 1.23s1.15.76 1.69 1.11ZM394.66 432.84 387.78 421a33.46 33.46 0 0 1 6.88 11.84Z" class="colorffedc5 svgShape"></path><path fill="#a3a3a3" d="M163.43 432.16h76.06a74.06 74.06 0 0 1 74.06 74.06H89.37a74.06 74.06 0 0 1 74.06-74.06Z" class="colora3a3a3 svgShape"></path><path fill="#7f7f7f" d="M119 484.14a4.12 4.12 0 1 1-8.23 0c0-2.27 2.84-2.12 5.12-2.12s3.11-.15 3.11 2.12ZM158.54 460.35c0 4.31-4.49 5.8-8.79 5.8a7.8 7.8 0 0 1 0-15.6c4.3 0 8.79 5.5 8.79 9.8ZM226.68 461.28a7.8 7.8 0 0 1-7.8 7.8c-4.3 0-6.8-1.49-6.8-5.8s2.5-9.8 6.8-9.8a7.8 7.8 0 0 1 7.8 7.8ZM299.21 488.86c0 4.31-4.49 5.8-8.8 5.8a7.8 7.8 0 0 1-7.8-7.8c0-4.3 4.5-5.79 8.8-5.79a7.8 7.8 0 0 1 7.8 7.79ZM186.71 491.13a7.8 7.8 0 0 1-7.8 7.8c-4.31 0-8.8-5.49-8.8-9.8a7.8 7.8 0 0 1 7.8-7.8c4.3 0 8.8 5.5 8.8 9.8ZM248.66 490.42c0 2.15-1.74 1.74-3.9 1.74s-2.89.26-2.89-1.9a3.9 3.9 0 0 1 3.89-3.9c2.16 0 2.9 1.9 2.9 4.06ZM268.38 449.59c0 2.15-.75 5.89-2.9 5.89a3.9 3.9 0 0 1-3.9-3.89c0-2.16.75-5.9 2.9-5.9a3.9 3.9 0 0 1 3.9 3.9ZM197.94 442.71c0 2.56-3.08 2.63-5.64 2.63a4.64 4.64 0 0 1 0-9.27c2.56 0 5.64 4.08 5.64 6.64Z" class="color7f7f7f svgShape"></path><ellipse cx="64.99" cy="471.99" fill="none" stroke="#ffcd52" stroke-miterlimit="10" rx="19.68" ry="34.1" class="colorStrokeffcd52 svgStroke"></ellipse><path fill="#ffcd52" d="M81.87 487c2.8-6.46.69-10.42.69-15 0-9.63-3.22-20.54-9-27.38a52.9 52.9 0 0 0-2.45 15.14c.03 9.61 5.02 20.38 10.76 27.24Z" class="colorffcd52 svgShape"></path><ellipse cx="95.27" cy="459.81" fill="#f5f5f7" rx="19.68" ry="34.1" class="colorfff svgShape"></ellipse><path fill="#ffcd52" d="M47 473.06c0 3.8-1.54 6.84.57 12 9-7.21 15.83-19.31 15.83-31.78a56.08 56.08 0 0 0-1.9-13c-9.1 7.13-14.5 20.31-14.5 32.78Z" class="colorffcd52 svgShape"></path><ellipse cx="40.15" cy="451.31" fill="#f5f5f7" rx="19.68" ry="34.1" class="colorfff svgShape"></ellipse><path fill="none" stroke="#ffcd52" stroke-linecap="round" stroke-linejoin="round" d="M64.99 506.09v-51.14M64.99 474.98l-7.97-9.11M64.99 485.86 53.5 472.73M64.99 497.07l-11.86-13.56M64.99 475l9.66-11.05M64.99 485.88l11.86-13.56M64.99 497.09l11.86-13.56" class="colorStrokeffcd52 svgStroke"></path><ellipse cx="40.15" cy="451.31" fill="none" stroke="#008ef8" stroke-miterlimit="10" rx="19.68" ry="34.1" class="colorStroke008ef8 svgStroke"></ellipse><path fill="none" stroke="#008ef8" stroke-linecap="round" stroke-linejoin="round" d="M40.15 434.27v71.95M40.15 454.3l-9.64-11.03M40.15 465.18l-11.86-13.56M40.15 476.39l-11.86-13.56M40.15 454.32l9.67-11.05M40.15 465.2l11.86-13.56M40.15 476.41l11.86-13.56" class="colorStroke008ef8 svgStroke"></path><ellipse cx="95.27" cy="459.81" fill="none" stroke="#ff5061" stroke-linecap="round" stroke-linejoin="round" rx="19.68" ry="34.1" class="colorStrokeff5061 svgStroke"></ellipse><path fill="none" stroke="#ff5061" stroke-linecap="round" stroke-linejoin="round" d="M95.27 442.77v63.45M95.27 462.8l-9.65-11.03M95.27 473.68l-11.86-13.56M95.27 484.89l-11.86-13.56M95.27 462.83l9.67-11.06M95.27 473.7l11.86-13.56M95.27 484.92l11.86-13.56" class="colorStrokeff5061 svgStroke"></path><path fill="none" stroke="#545454" stroke-linecap="round" stroke-linejoin="round" d="M.5 506.22h389.82" class="colorStroke545454 svgStroke"></path></g></g></svg></g></svg>